<?xml version="1.0" encoding="UTF-8" standalone="no"?>
<svg
   xmlns:dc="http://purl.org/dc/elements/1.1/"
   xmlns:cc="http://creativecommons.org/ns#"
   xmlns:rdf="http://www.w3.org/1999/02/22-rdf-syntax-ns#"
   xmlns:svg="http://www.w3.org/2000/svg"
   xmlns="http://www.w3.org/2000/svg"
   xmlns:sodipodi="http://sodipodi.sourceforge.net/DTD/sodipodi-0.dtd"
   xmlns:inkscape="http://www.inkscape.org/namespaces/inkscape"
   sodipodi:docname="drawing.svg"
   inkscape:version="1.0 (6e3e5246a0, 2020-05-07)"
   id="svg8"
   version="1.1"
   viewBox="0 0 33.499225 33.49874"
   height="33.499161mm"
   width="33.499645mm">
  <defs
     id="defs2" />
  <sodipodi:namedview
     scale-x="0.26458"
     inkscape:window-maximized="1"
     inkscape:window-y="27"
     inkscape:window-x="72"
     inkscape:window-height="1016"
     inkscape:window-width="1848"
     inkscape:snap-page="true"
     showborder="true"
     borderlayer="true"
     inkscape:showpageshadow="false"
     inkscape:pagecheckerboard="false"
     showgrid="false"
     inkscape:document-rotation="0"
     inkscape:current-layer="layer2"
     inkscape:document-units="px"
     inkscape:cy="100.4637"
     inkscape:cx="36.173263"
     inkscape:zoom="1.1282649"
     inkscape:pageshadow="2"
     inkscape:pageopacity="1"
     borderopacity="1"
     bordercolor="#000000"
     pagecolor="#606060"
     id="base" />
  <metadata
     id="metadata5">
    <rdf:RDF>
      <cc:Work
         rdf:about="">
        <dc:format>image/svg+xml</dc:format>
        <dc:type
           rdf:resource="http://purl.org/dc/dcmitype/StillImage" />
        <dc:title></dc:title>
      </cc:Work>
    </rdf:RDF>
  </metadata>
  <g
     transform="translate(-116.34361,-155.77357)"
     sodipodi:insensitive="true"
     style="display:none"
     id="layer1"
     inkscape:groupmode="layer"
     inkscape:label="Background">
    <rect
       y="0"
       x="0"
       height="419.99472"
       width="296.99628"
       id="rect10"
       style="fill:#ffffff;fill-rule:evenodd;stroke:none;stroke-width:0.374172" />
  </g>
  <g
     transform="translate(-116.34361,-155.77357)"
     inkscape:label="Layer 1"
     id="layer2"
     inkscape:groupmode="layer">
    <g
       transform="matrix(0.26458001,0,0,0.26458001,116.48826,155.77357)"
       id="g875">
      <polygon
         fill="#f3ba2f"
         points="38.171,53.203 62.759,28.616 87.36,53.216 101.667,38.909 62.759,0 23.864,38.896 "
         id="polygon832" />
      <rect
         x="3.6440001"
         y="53.188"
         transform="matrix(0.7071,0.7071,-0.7071,0.7071,48.7933,8.8106)"
         fill="#f3ba2f"
         width="20.233"
         height="20.233999"
         id="rect834" />
      <polygon
         fill="#f3ba2f"
         points="23.863,87.716 23.843,87.696 38.171,73.408 62.759,97.995 87.359,73.396 101.674,87.695 101.667,87.703 62.759,126.611 "
         id="polygon836" />
      <rect
         x="101.64"
         y="53.188999"
         transform="matrix(-0.7071,0.7071,-0.7071,-0.7071,235.5457,29.0503)"
         fill="#f3ba2f"
         width="20.233999"
         height="20.233"
         id="rect838" />
      <polygon
         fill="#f3ba2f"
         points="48.254,63.285 48.254,63.285 48.234,63.305 48.254,63.326 62.759,77.831 77.277,63.313 77.284,63.305 77.271,63.298 77.277,63.298 62.759,48.78 52.03,59.509 52.029,59.509 50.797,60.742 "
         id="polygon840" />
    </g>
  </g>
</svg>
