<?xml version="1.0" standalone="no"?>
<!DOCTYPE svg PUBLIC "-//W3C//DTD SVG 20010904//EN"
 "http://www.w3.org/TR/2001/REC-SVG-20010904/DTD/svg10.dtd">
<svg version="1.0" xmlns="http://www.w3.org/2000/svg"
 width="223.000000pt" height="223.000000pt" viewBox="0 0 223.000000 223.000000"
 preserveAspectRatio="xMidYMid meet">
<metadata>
Created by potrace 1.14, written by Peter Selinger 2001-2017
</metadata>
<g transform="translate(0.000000,223.000000) scale(0.100000,-0.100000)"
fill="#000000" stroke="none">
<path d="M989 2225 c-2 -1 -26 -6 -53 -9 -207 -28 -431 -143 -595 -306 -294
-292 -401 -719 -282 -1125 26 -87 91 -223 136 -287 19 -26 35 -50 35 -53 0
-20 169 -186 244 -240 100 -71 262 -146 376 -174 161 -40 425 -37 540 6 8 3
24 8 35 10 49 8 264 109 285 132 3 3 23 18 45 33 189 128 372 403 424 640 6
24 13 57 16 73 4 17 8 93 10 170 4 220 -41 401 -146 585 -39 67 -130 182 -193
243 -148 142 -330 239 -531 284 -60 13 -336 28 -346 18z"/>
</g>
</svg>
