<?xml version="1.0" encoding="UTF-8" standalone="no"?>
<svg
   xmlns:dc="http://purl.org/dc/elements/1.1/"
   xmlns:cc="http://creativecommons.org/ns#"
   xmlns:rdf="http://www.w3.org/1999/02/22-rdf-syntax-ns#"
   xmlns:svg="http://www.w3.org/2000/svg"
   xmlns="http://www.w3.org/2000/svg"
   xmlns:sodipodi="http://sodipodi.sourceforge.net/DTD/sodipodi-0.dtd"
   xmlns:inkscape="http://www.inkscape.org/namespaces/inkscape"
   inkscape:version="1.0 (6e3e5246a0, 2020-05-07)"
   sodipodi:docname="yoroi.svg"
   viewBox="0 0 192.89458 176.26318"
   height="176.26318"
   width="192.89458"
   id="svg2"
   version="1.1">
  <metadata
     id="metadata8">
    <rdf:RDF>
      <cc:Work
         rdf:about="">
        <dc:format>image/svg+xml</dc:format>
        <dc:type
           rdf:resource="http://purl.org/dc/dcmitype/StillImage" />
        <dc:title></dc:title>
      </cc:Work>
    </rdf:RDF>
  </metadata>
  <defs
     id="defs6" />
  <sodipodi:namedview
     inkscape:current-layer="g10"
     inkscape:window-maximized="1"
     inkscape:window-y="27"
     inkscape:window-x="72"
     inkscape:cy="147.85994"
     inkscape:cx="40.713546"
     inkscape:zoom="1.0055273"
     showgrid="false"
     id="namedview4"
     inkscape:window-height="1016"
     inkscape:window-width="1848"
     inkscape:pageshadow="2"
     inkscape:pageopacity="0"
     guidetolerance="10"
     gridtolerance="10"
     objecttolerance="10"
     borderopacity="1"
     bordercolor="#666666"
     pagecolor="#ffffff" />
  <g
     transform="translate(-264.85654,17.502775)"
     id="g10"
     inkscape:label="Image"
     inkscape:groupmode="layer">
    <g
       transform="translate(434.07223,-19.106126)"
       id="g894">
      <path
         style="fill:#3367d5;fill-opacity:1;fill-rule:evenodd;stroke-width:1.3701"
         d="m -32.379117,147.44032 c 0,-0.30426 -0.31417,-0.5532 -0.69815,-0.5532 -0.38398,0 -0.79367,-0.24895 -0.91043,-0.55321 -0.11676,-0.30426 -0.3749,-0.5532 -0.57366,-0.5532 -0.19876,0 -0.80906,-0.4149 -1.35624,-0.92201 -0.54717,-0.5071 -1.30255,-0.92201 -1.67861,-0.92201 -0.37606,0 -0.68375,-0.24894 -0.68375,-0.5532 0,-0.30426 -0.23119,-0.5532 -0.51375,-0.5532 -0.28256,0 -0.60927,-0.24895 -0.72603,-0.55321 -0.11676,-0.30426 -0.54941,-0.5532 -0.96147,-0.5532 -0.41204,0 -0.74917,-0.16596 -0.74917,-0.3688 0,-0.20285 -0.24895,-0.36881 -0.55321,-0.36881 -0.30426,0 -0.5532,-0.22958 -0.5532,-0.51019 0,-0.2806 -0.29043,-0.60771 -0.64541,-0.7269 -0.82614,-0.27739 -1.83629,-0.94315 -3.0193,-1.98993 -0.51578,-0.45639 -1.22992,-0.82981 -1.58696,-0.82981 -0.35705,0 -0.64917,-0.24894 -0.64917,-0.5532 0,-0.30426 -0.23119,-0.5532 -0.51375,-0.5532 -0.28256,0 -0.60927,-0.24895 -0.72603,-0.55321 -0.11676,-0.30426 -0.54942,-0.5532 -0.96147,-0.5532 -0.41205,0 -0.74918,-0.16596 -0.74918,-0.36881 0,-0.20284 -0.24894,-0.3688 -0.5532,-0.3688 -0.30426,0 -0.5532,-0.20843 -0.5532,-0.46317 0,-0.25475 -0.48459,-0.67768 -1.07686,-0.93984 -0.59227,-0.26217 -1.62953,-0.96387 -2.30501,-1.55935 -0.6755,-0.59548 -1.47711,-1.09237 -1.78137,-1.10419 -0.30426,-0.0118 -0.96032,-0.51237 -1.45791,-1.1123 -0.49759,-0.59994 -1.16144,-1.09607 -1.47521,-1.10252 -0.68009,-0.014 -1.86132,-0.85453 -1.86132,-1.32449 0,-0.32627 -1.02418,-0.97354 -2.30501,-1.45675 -0.35498,-0.13392 -0.64541,-0.39009 -0.64541,-0.56927 0,-0.17918 -0.23119,-0.32579 -0.51374,-0.32579 -0.28257,0 -0.60928,-0.24894 -0.72604,-0.55321 -0.11675,-0.30426 -0.63239,-0.5532 -1.14586,-0.5532 -0.51347,0 -0.93358,-0.1729 -0.93358,-0.38422 0,-0.54617 -1.10634,-1.57467 -2.37586,-2.2087 -0.59677,-0.29805 -1.588038,-0.9983 -2.202807,-1.55611 -0.614768,-0.55781 -1.373307,-1.01421 -1.685638,-1.01421 -0.312336,0 -0.879458,-0.4149 -1.260277,-0.922 -0.396072,-0.52742 -1.064884,-0.92201 -1.562746,-0.92201 -0.478691,0 -0.870348,-0.16407 -0.870348,-0.36459 0,-0.56118 -1.212778,-1.84823 -1.741575,-1.84823 -0.259184,0 -0.471241,-0.16596 -0.471241,-0.3688 0,-0.20284 -0.414903,-0.3688 -0.922007,-0.3688 -0.507104,0 -0.922007,-0.18085 -0.922007,-0.40189 0,-0.54511 -1.526707,-1.78347 -2.217481,-1.79866 -0.30683,-0.007 -0.869449,-0.42717 -1.250267,-0.93427 -0.380822,-0.50711 -1.006286,-0.92201 -1.389922,-0.92201 -0.383636,0 -0.793047,-0.24894 -0.909803,-0.55321 -0.116759,-0.30426 -0.44347,-0.5532 -0.726032,-0.5532 -0.282559,0 -0.513746,-0.24894 -0.513746,-0.5532 0,-0.30427 -0.248942,-0.55321 -0.553204,-0.55321 -0.304262,0 -0.553204,-0.16596 -0.553204,-0.3688 0,-0.20284 -0.414903,-0.3688 -0.922007,-0.3688 -0.507104,0 -0.922007,-0.18085 -0.922007,-0.40189 0,-0.57832 -1.545386,-1.78422 -2.305017,-1.79866 -0.354972,-0.007 -0.645404,-0.17823 -0.645404,-0.38107 0,-0.20284 -0.248942,-0.3688 -0.553204,-0.3688 -0.304263,0 -0.553204,-0.22959 -0.553204,-0.5102 0,-0.2806 -0.290433,-0.6077 -0.645405,-0.72689 -0.902339,-0.30298 -1.934252,-1.01679 -2.87674,-1.989942 -0.44202,-0.456393 -1.15805,-0.829806 -1.59118,-0.829806 -0.45415,0 -0.78752,-0.234182 -0.78752,-0.553204 0,-0.304262 -0.23119,-0.553204 -0.51374,-0.553204 -0.28257,0 -0.60928,-0.248942 -0.72604,-0.553204 -0.11675,-0.304262 -0.54941,-0.553204 -0.96146,-0.553204 -0.41205,0 -0.74918,-0.165961 -0.74918,-0.368802 0,-0.202842 -0.24894,-0.368803 -0.5532,-0.368803 -0.30427,0 -0.55321,-0.248942 -0.55321,-0.553204 0,-0.304262 -0.24894,-0.553204 -0.5532,-0.553204 -0.30427,0 -0.55321,-0.154779 -0.55321,-0.343949 0,-0.189174 -0.35783,-0.457522 -0.79518,-0.596332 -0.43735,-0.13881 -1.16172,-0.64788 -1.60971,-1.131262 -0.44798,-0.483382 -1.16889,-0.878879 -1.60203,-0.878879 -0.45414,0 -0.78751,-0.234182 -0.78751,-0.553204 0,-0.304262 -0.23119,-0.553204 -0.51375,-0.553204 -0.28256,0 -0.60927,-0.248942 -0.72603,-0.553204 -0.11676,-0.304262 -0.54941,-0.553204 -0.96146,-0.553204 -0.41205,0 -0.74918,-0.165961 -0.74918,-0.368803 0,-0.202841 -0.24895,-0.368802 -0.55321,-0.368802 -0.30426,0 -0.5532,-0.248942 -0.5532,-0.553205 0,-0.304262 -0.24894,-0.553204 -0.55321,-0.553204 -0.30426,0 -0.5532,-0.154779 -0.5532,-0.343949 0,-0.189173 -0.35783,-0.457522 -0.79518,-0.596331 -0.43736,-0.13881 -1.16172,-0.64788 -1.60971,-1.131262 -0.44798,-0.483383 -1.1689,-0.878879 -1.60203,-0.878879 -0.45414,0 -0.78751,-0.234182 -0.78751,-0.553204 0,-0.304262 -0.24895,-0.553204 -0.55321,-0.553204 -0.30426,0 -0.5532,-0.166456 -0.5532,-0.369899 0,-0.203444 -0.66385,-0.657498 -1.47521,-1.009007 -0.81137,-0.35151 -1.47521,-0.8489 -1.47521,-1.105312 0,-0.256412 -0.24895,-0.466204 -0.55321,-0.466204 -0.30426,0 -0.5532,-0.154777 -0.5532,-0.34395 0,-0.189172 -0.37342,-0.461179 -0.82981,-0.60446 -0.45639,-0.14328 -1.19529,-0.652348 -1.642,-1.131261 -0.44671,-0.478913 -1.15204,-0.87075 -1.56741,-0.87075 -0.42544,0 -0.75522,-0.241569 -0.75522,-0.553204 0,-0.304263 -0.24894,-0.553205 -0.5532,-0.553205 -0.30426,0 -0.55321,-0.166454 -0.55321,-0.369898 0,-0.203445 -0.66384,-0.657498 -1.47521,-1.009008 -0.81136,-0.351509 -1.47521,-0.8489 -1.47521,-1.105312 0,-0.256412 -0.24894,-0.466203 -0.5532,-0.466203 -0.30426,0 -0.55321,-0.154778 -0.55321,-0.34395 0,-0.189172 -0.37341,-0.46118 -0.8298,-0.60446 -0.45639,-0.143281 -1.1953,-0.652348 -1.642,-1.131261 -0.44671,-0.478913 -1.15205,-0.870751 -1.56742,-0.870751 -0.42543,0 -0.75521,-0.241568 -0.75521,-0.553204 0,-0.304262 -0.24894,-0.553204 -0.5532,-0.553204 -0.30427,0 -0.55321,-0.166454 -0.55321,-0.369899 0,-0.203444 -0.66384,-0.657497 -1.47521,-1.009007 -0.81137,-0.351509 -1.47521,-0.8489 -1.47521,-1.105312 0,-0.256412 -0.17782,-0.466203 -0.39515,-0.466203 -0.21733,0 -0.63223,-0.237088 -0.922,-0.526861 -0.42914,-0.429142 -0.52686,-2.27604 -0.52686,-9.957673 0,-8.670654 0.16452,-10.287649 0.922,-9.062009 0.12537,0.202841 0.63304,0.368802 1.12818,0.368802 0.49513,0 0.90024,0.165962 0.90024,0.368803 0,0.533188 1.14209,1.575491 2.40842,2.197986 0.60236,0.296105 1.54224,1.00144 2.08862,1.567411 0.54638,0.565971 1.3347,1.029038 1.75181,1.029038 0.42826,0 0.7584,0.240813 0.7584,0.553204 0,0.304262 0.24894,0.553204 0.5532,0.553204 0.30427,0 0.55321,0.165961 0.55321,0.368803 0,0.202841 0.4149,0.368803 0.922,0.368803 0.5737,0 0.92201,0.208988 0.92201,0.553204 0,0.304262 0.24894,0.553204 0.5532,0.553204 0.30427,0 0.55321,0.248941 0.55321,0.553204 0,0.304262 0.24894,0.553204 0.5532,0.553204 0.30427,0 0.55321,0.165961 0.55321,0.368802 0,0.202842 0.4149,0.368803 0.922,0.368803 0.5737,0 0.92201,0.208988 0.92201,0.553204 0,0.304262 0.24894,0.553204 0.5532,0.553204 0.30427,0 0.55321,0.248942 0.55321,0.553204 0,0.344216 0.34831,0.553204 0.92201,0.553204 0.57369,0 0.922,0.208989 0.922,0.553204 0,0.304263 0.24894,0.553204 0.55321,0.553204 0.30426,0 0.5532,0.126607 0.5532,0.28135 0,0.281686 1.09278,0.947876 2.30502,1.405206 0.35497,0.133917 0.6454,0.473072 0.6454,0.753676 0,0.280604 0.24894,0.51019 0.55321,0.51019 0.30426,0 0.5532,0.165961 0.5532,0.368803 0,0.202841 0.4149,0.368802 0.92201,0.368802 0.57369,0 0.922,0.208989 0.922,0.553204 0,0.304263 0.24895,0.553205 0.55321,0.553205 0.30426,0 0.5532,0.248941 0.5532,0.553204 0,0.311635 0.32978,0.553204 0.75522,0.553204 0.41537,0 1.12189,0.373412 1.57005,0.829806 0.93774,0.954959 2.00364,1.678834 2.93017,1.989935 0.35497,0.119189 0.6454,0.446294 0.6454,0.726898 0,0.280605 0.24895,0.51019 0.55321,0.51019 0.30426,0 0.5532,0.165962 0.5532,0.368803 0,0.202841 0.41491,0.368803 0.92201,0.368803 0.57369,0 0.92201,0.208988 0.92201,0.553204 0,0.304262 0.24894,0.553204 0.5532,0.553204 0.30426,0 0.5532,0.248942 0.5532,0.553204 0,0.311635 0.32978,0.553204 0.75522,0.553204 0.41537,0 1.13973,0.414903 1.6097,0.922007 0.46997,0.507103 1.04291,0.922006 1.2732,0.922006 0.23029,0 0.41871,0.1628 0.41871,0.361777 0,0.198976 0.41491,0.46591 0.92201,0.593185 0.5071,0.127275 0.92201,0.462359 0.92201,0.744632 0,0.282272 0.24894,0.513223 0.5532,0.513223 0.30426,0 0.55321,0.165961 0.55321,0.368802 0,0.202842 0.4149,0.368803 0.922,0.368803 0.5737,0 0.92201,0.208988 0.92201,0.553204 0,0.304262 0.24894,0.553204 0.5532,0.553204 0.30427,0 0.55321,0.248942 0.55321,0.553204 0,0.304262 0.292126,0.553204 0.649171,0.553204 0.357046,0 1.096628,0.414903 1.643514,0.922007 0.546891,0.507104 1.149794,0.922007 1.339787,0.922007 0.189992,0 0.440966,0.248941 0.557725,0.553204 0.116756,0.304262 0.549413,0.553204 0.961465,0.553204 0.420067,0 0.749179,0.243019 0.749179,0.553204 0,0.304262 0.248942,0.553204 0.553204,0.553204 0.304262,0 0.553204,0.165961 0.553204,0.368803 0,0.202841 0.414903,0.368802 0.922007,0.368802 0.573694,0 0.922006,0.20899 0.922006,0.553204 0,0.304263 0.248942,0.553204 0.553204,0.553204 0.304263,0 0.553204,0.20979 0.553204,0.466204 0,0.25641 0.663845,0.753803 1.475211,1.105313 0.811366,0.351509 1.475211,0.805561 1.475211,1.009007 0,0.203443 0.231188,0.369898 0.513746,0.369898 0.282562,0 0.609273,0.248942 0.726032,0.553204 0.116756,0.304262 0.474358,0.553204 0.79467,0.553204 0.320317,0 0.966909,0.414903 1.436878,0.922007 0.469969,0.507103 1.208869,0.922007 1.642002,0.922007 0.454143,0 0.787515,0.234182 0.787515,0.553204 0,0.304262 0.157413,0.553204 0.349802,0.553204 0.19239,0 0.797488,0.414903 1.344662,0.922006 0.547174,0.507104 1.302552,0.922007 1.678613,0.922007 0.376064,0 0.683753,0.248942 0.683753,0.553204 0,0.304262 0.231188,0.553204 0.513746,0.553204 0.282562,0 0.609273,0.248942 0.726032,0.553204 0.116756,0.304262 0.474358,0.553204 0.79467,0.553204 0.320317,0 0.966909,0.414903 1.436878,0.922007 0.469969,0.507104 1.208869,0.922007 1.642002,0.922007 0.45414,0 0.78752,0.234182 0.78752,0.553202 0,0.30426 0.15741,0.55321 0.3498,0.55321 0.19239,0 0.79748,0.4149 1.34466,0.92201 0.54717,0.5071 1.30255,0.922 1.67861,0.922 0.37607,0 0.68375,0.24894 0.68375,0.55321 0,0.30426 0.23119,0.5532 0.51375,0.5532 0.28256,0 0.60927,0.24894 0.72603,0.5532 0.11676,0.30427 0.47436,0.55321 0.79467,0.55321 0.32032,0 0.96691,0.4149 1.43688,0.92201 0.46997,0.5071 1.0844,0.92434 1.3654,0.92721 0.281,0.003 1.24441,0.66671 2.14091,1.47521 0.89649,0.8085 1.93375,1.47 2.30501,1.47 0.37127,0 0.67503,0.24895 0.67503,0.55321 0,0.30426 0.23119,0.5532 0.51374,0.5532 0.28257,0 0.60928,0.24894 0.72604,0.55321 0.11675,0.30426 0.52616,0.5532 0.9098,0.5532 0.38363,0 1.0091,0.4149 1.38992,0.92201 0.38082,0.5071 0.90895,0.922 1.17363,0.922 0.26468,0 0.68168,0.1711 0.92668,0.38022 0.24498,0.20913 1.0147,0.87297 1.71047,1.47521 0.69576,0.60225 1.52557,1.10202 1.84401,1.11061 0.31844,0.009 0.9861,0.50648 1.48369,1.10641 0.52197,0.62934 1.26307,1.09079 1.75181,1.09079 0.46591,0 0.8471,0.2209 0.8471,0.49088 0,0.26999 0.4564,0.72638 1.01421,1.01421 1.23493,0.63722 1.41686,0.76766 3.03262,2.1743 0.70443,0.61328 1.65871,1.11505 2.12061,1.11505 0.4619,0 0.83982,0.16406 0.83982,0.36458 0,0.72087 1.28726,1.84823 2.11037,1.84823 0.46203,0 0.84005,0.2209 0.84005,0.49089 0,0.26998 0.45639,0.72638 1.01421,1.0142 0.55781,0.28783 1.23351,0.73078 1.50155,0.98433 0.26804,0.25355 0.72443,0.461 1.01421,0.461 0.28977,0 0.52686,0.18916 0.52686,0.42035 0,0.61992 1.16935,1.39849 2.12061,1.41194 0.4564,0.006 0.82981,0.17769 0.82981,0.38053 0,0.57327 1.40995,1.84401 2.04602,1.84401 0.31395,0 0.95534,0.41491 1.4253,0.92201 0.46997,0.5071 1.04291,0.92201 1.2732,0.92201 0.2303,0 0.41872,0.1628 0.41872,0.36177 0,0.19898 0.4149,0.46591 0.922,0.59319 0.50711,0.12727 0.92201,0.46236 0.92201,0.74463 0,0.28227 0.24894,0.51322 0.5532,0.51322 0.30427,0 0.55321,0.16596 0.55321,0.36881 0,0.20284 0.4149,0.3688 0.92201,0.3688 0.57369,0 0.922,0.20899 0.922,0.5532 0,0.31019 -0.32911,0.55321 -0.74918,0.55321 -0.41205,0 -0.84471,0.24894 -0.96146,0.5532 -0.11676,0.30426 -0.44347,0.5532 -0.72603,0.5532 -0.28256,0 -0.51504,0.20746 -0.51663,0.46101 -0.003,0.47613 -1.62121,1.38301 -2.46786,1.38301 -0.26382,0 -0.47968,0.24894 -0.47968,0.5532 0,0.30426 -0.24894,0.55321 -0.55321,0.55321 -0.30426,0 -0.5532,0.24894 -0.5532,0.5532 0,0.31902 -0.33337,0.5532 -0.78751,0.5532 -0.43314,0 -1.15405,0.3955 -1.60204,0.87888 -0.44798,0.48339 -1.17235,0.99246 -1.6097,1.13127 -0.43735,0.13881 -0.79518,0.40715 -0.79518,0.59633 0,0.18917 -0.24895,0.34395 -0.55321,0.34395 -0.30426,0 -0.5532,0.24894 -0.5532,0.5532 0,0.3688 -0.36881,0.5532 -1.10641,0.5532 -0.73761,0 -1.10641,-0.1844 -1.10641,-0.5532 z"
         id="path871" />
      <path
         style="fill:#3367d5;fill-opacity:1;fill-rule:evenodd;stroke-width:1.3701"
         d="m -41.732557,95.439137 c -0.11675,-0.304262 -0.54941,-0.553204 -0.96146,-0.553204 -0.42007,0 -0.74918,-0.243019 -0.74918,-0.553204 0,-0.304263 -0.24894,-0.553204 -0.5532,-0.553204 -0.30427,0 -0.55321,-0.162801 -0.55321,-0.361777 0,-0.198977 -0.4149,-0.465909 -0.922,-0.593186 -0.50711,-0.127274 -0.92201,-0.379377 -0.92201,-0.56023 0,-0.18085 -0.24894,-0.328821 -0.55321,-0.328821 -0.30426,0 -0.5532,-0.248942 -0.5532,-0.553204 0,-0.304262 -0.24894,-0.553204 -0.5532,-0.553204 -0.30427,0 -0.55321,-0.162801 -0.55321,-0.361777 0,-0.198976 -0.4149,-0.465908 -0.922,-0.593186 -0.50711,-0.127274 -0.92201,-0.379376 -0.92201,-0.56023 0,-0.180849 -0.24894,-0.32882 -0.55321,-0.32882 -0.30426,0 -0.5532,-0.229588 -0.5532,-0.510191 0,-0.280604 -0.29043,-0.607709 -0.6454,-0.726899 -2.53652,-0.851687 -3.28451,-2.49394 -1.35633,-2.977883 0.49243,-0.123593 0.89532,-0.387512 0.89532,-0.586488 0,-0.198977 0.17389,-0.361777 0.38642,-0.361777 0.21252,0 0.7519,-0.373413 1.1986,-0.829806 0.44671,-0.456394 1.43455,-1.146373 2.19521,-1.533287 0.76066,-0.386914 1.38301,-0.926288 1.38301,-1.198609 0,-0.27232 0.33985,-0.495128 0.75522,-0.495128 0.41536,0 1.13973,-0.414903 1.6097,-0.922007 0.46997,-0.507103 1.02515,-0.922006 1.23374,-0.922006 0.20859,0 0.47478,-0.248942 0.59154,-0.553204 0.11676,-0.304263 0.50264,-0.553205 0.85752,-0.553205 0.35488,0 0.98245,-0.373412 1.39459,-0.829806 0.41214,-0.456393 1.3717,-1.146372 2.13235,-1.533286 0.76066,-0.386914 1.38301,-0.886934 1.38301,-1.111155 0,-0.224221 0.31588,-0.5715 0.70194,-0.771731 0.38607,-0.20023 1.29886,-0.673397 2.02842,-1.051482 0.72956,-0.378084 1.32647,-0.917458 1.32647,-1.198608 0,-0.281151 0.33985,-0.511183 0.75522,-0.511183 0.41537,0 1.12189,-0.373413 1.57005,-0.829806 0.80773,-0.822562 1.79807,-1.528393 2.8098,-2.002589 0.74998,-0.351514 1.87218,-1.527581 1.87218,-1.96204 0,-0.202841 0.37342,-0.374081 0.82981,-0.380532 0.95127,-0.01345 2.12062,-0.792015 2.12062,-1.411939 0,-0.231189 0.23708,-0.420345 0.52686,-0.420345 0.28977,0 0.74616,-0.207452 1.0142,-0.461003 0.26804,-0.253552 0.94374,-0.696499 1.50156,-0.984327 0.55781,-0.287828 1.01421,-0.744222 1.01421,-1.014208 0,-0.269986 0.37802,-0.490884 0.84004,-0.490884 0.82312,0 2.11038,-1.127358 2.11038,-1.848229 0,-0.200523 0.4149,-0.364587 0.922,-0.364587 0.50711,0 0.92201,-0.165961 0.92201,-0.368803 0,-0.202841 0.16596,-0.368802 0.3688,-0.368802 0.47832,0 1.84402,-1.365701 1.84402,-1.844014 0,-0.202841 0.37341,-0.374081 0.8298,-0.380531 0.95127,-0.01345 2.1206199,-0.792016 2.1206199,-1.411939 0,-0.23119 0.29849,-0.420346 0.66331,-0.420346 0.36482,0 1.35418,-0.663845 2.19857,-1.475211 0.84439,-0.811366 1.8367,-1.475211 2.20514,-1.475211 0.68626,0 1.94023,-1.194507 1.94023,-1.848229 0,-0.200523 0.38361,-0.364587 0.85247,-0.364587 0.46885,0 1.21567996,-0.338387 1.65960996,-0.751972 l 0.80714,-0.751972 v 10.300861 10.300861 l -0.922,0.231409 c -0.50711,0.127275 -0.92200996,0.394209 -0.92200996,0.593185 0,0.198977 -0.24894,0.361777 -0.5532,0.361777 -0.30427,0 -0.55321,0.165961 -0.55321,0.368802 0,0.202842 -0.24894,0.368803 -0.5532,0.368803 -0.30426,0 -0.55321,0.248942 -0.55321,0.553204 0,0.304262 -0.32619,0.553204 -0.72488,0.553204 -0.3987,0 -1.23422,0.497884 -1.85673,1.106408 -0.62252,0.608525 -1.37506,1.106408 -1.67233,1.106408 -0.29727,0 -0.54049,0.165962 -0.54049,0.368803 0,0.202842 -0.24894,0.368803 -0.5532,0.368803 -0.30427,0 -0.55321,0.248942 -0.55321,0.553204 0,0.304262 -0.24894,0.553204 -0.5532,0.553204 -0.3042699,0 -0.5532099,0.248942 -0.5532099,0.553204 0,0.324349 -0.34328,0.558056 -0.8298,0.564933 -0.95127,0.01345 -2.12062,0.792016 -2.12062,1.411939 0,0.23119 -0.29213,0.420345 -0.64917,0.420345 -0.35705,0 -1.06238,0.38191 -1.56741,0.848688 -0.50503,0.466778 -1.48826,1.172113 -2.18493,1.567411 -1.49457,0.848017 -2.60574,1.862219 -2.60574,2.378337 0,0.202841 -0.37341,0.374081 -0.82981,0.380531 -0.92483,0.01307 -2.12061,0.786696 -2.12061,1.371956 0,0.209204 -0.4149,0.4845 -0.92201,0.611774 -0.5071,0.127277 -0.922,0.394209 -0.922,0.593186 0,0.198976 -0.2369,0.361777 -0.52644,0.361777 -0.28954,0 -0.8528,0.414903 -1.25169,0.922007 -0.39889,0.507103 -1.03789,0.922006 -1.42001,0.922006 -0.70617,0 -1.9651,1.184064 -1.9651,1.848229 0,0.200522 -0.41491,0.364588 -0.92201,0.364588 -0.5071,0 -0.92201,0.165961 -0.92201,0.368802 0,0.202842 -0.16596,0.368803 -0.3688,0.368803 -0.47831,0 -1.84401,1.365698 -1.84401,1.844013 0,0.202842 -0.37342,0.374081 -0.82981,0.380531 -0.95127,0.01346 -2.12061,0.792015 -2.12061,1.411939 0,0.231191 -0.29494,0.420347 -0.65542,0.420347 -0.36047,0 -1.20052,0.497883 -1.86677,1.106408 -1.36618,1.247807 -1.73213,1.347199 -2.03682,0.553204 z"
         id="path873" />
      <path
         style="fill:#3367d5;fill-opacity:1;fill-rule:evenodd;stroke-width:1.3701"
         d="m -72.567395,69.537773 c -0.0062,-0.249687 -0.426118,-0.558109 -0.933222,-0.685387 -0.507103,-0.127274 -0.922007,-0.379376 -0.922007,-0.560229 0,-0.18085 -0.248941,-0.328821 -0.553204,-0.328821 -0.304262,0 -0.553204,-0.248942 -0.553204,-0.553204 0,-0.344215 -0.348312,-0.553204 -0.922006,-0.553204 -0.573695,0 -0.922007,-0.20899 -0.922007,-0.553204 0,-0.304263 -0.248942,-0.553204 -0.553204,-0.553204 -0.304262,0 -0.553204,-0.165962 -0.553204,-0.368803 0,-0.202842 -0.248942,-0.368803 -0.553204,-0.368803 -0.304262,0 -0.553204,-0.1628 -0.553204,-0.361777 0,-0.198976 -0.414903,-0.465908 -0.922007,-0.593186 -0.507104,-0.127274 -0.922007,-0.462357 -0.922007,-0.744631 0,-0.28227 -0.248942,-0.513222 -0.553204,-0.513222 -0.304262,0 -0.553204,-0.162801 -0.553204,-0.361777 0,-0.198976 -0.414903,-0.465909 -0.922007,-0.593186 -0.507103,-0.127274 -0.922006,-0.379376 -0.922006,-0.56023 0,-0.18085 -0.248942,-0.328821 -0.553204,-0.328821 -0.304263,0 -0.553204,-0.248941 -0.553204,-0.553204 0,-0.344214 -0.348313,-0.553204 -0.922007,-0.553204 -0.573695,0 -0.922007,-0.208989 -0.922007,-0.553204 0,-0.304262 -0.248942,-0.553204 -0.553204,-0.553204 -0.304262,0 -0.553204,-0.126606 -0.553204,-0.281348 0,-0.281688 -1.092777,-0.947879 -2.305017,-1.405209 -0.354973,-0.133916 -0.645405,-0.47307 -0.645405,-0.753674 0,-0.280603 -0.248941,-0.51019 -0.553204,-0.51019 -0.304262,0 -0.553204,-0.162801 -0.553204,-0.361777 0,-0.198977 -0.414903,-0.465909 -0.922007,-0.593186 -0.507103,-0.127274 -0.922006,-0.379377 -0.922006,-0.56023 0,-0.18085 -0.248942,-0.328821 -0.553204,-0.328821 -0.304263,0 -0.553204,-0.248942 -0.553204,-0.553204 0,-0.344214 -0.348312,-0.553204 -0.922007,-0.553204 -0.573695,0 -0.922007,-0.208989 -0.922007,-0.553204 0,-0.304262 -0.248942,-0.553204 -0.553204,-0.553204 -0.304262,0 -0.553204,-0.126606 -0.553204,-0.281349 0,-0.281687 -1.092777,-0.947878 -2.305021,-1.405208 -0.35497,-0.133916 -0.6454,-0.47307 -0.6454,-0.753674 0,-0.280604 -0.24894,-0.510191 -0.55321,-0.510191 -0.30426,0 -0.5532,-0.147971 -0.5532,-0.32882 0,-0.180854 -0.4149,-0.432956 -0.92201,-0.56023 -0.5071,-0.127278 -0.922,-0.39421 -0.922,-0.593186 0,-0.198977 -0.24894,-0.361777 -0.55321,-0.361777 -0.30426,0 -0.5532,-0.248942 -0.5532,-0.553204 0,-0.311635 -0.32978,-0.553204 -0.75522,-0.553204 -0.41536,0 -1.13973,-0.414903 -1.6097,-0.922007 -0.46997,-0.507104 -1.02515,-0.922007 -1.23374,-0.922007 -0.20859,0 -0.47478,-0.248942 -0.59154,-0.553204 -0.11676,-0.304262 -0.54941,-0.553204 -0.96147,-0.553204 -0.42006,0 -0.74917,-0.243019 -0.74917,-0.553204 0,-0.304262 -0.24895,-0.553204 -0.55321,-0.553204 -0.30426,0 -0.5532,-0.147971 -0.5532,-0.328821 0,-0.180853 -0.41491,-0.432956 -0.92201,-0.560229 -0.5071,-0.127278 -0.92201,-0.39421 -0.92201,-0.593186 0,-0.198977 -0.24894,-0.361777 -0.5532,-0.361777 -0.30426,0 -0.5532,-0.248942 -0.5532,-0.553204 0,-0.304263 -0.29213,-0.553204 -0.64918,-0.553204 -0.35704,0 -1.09662,-0.414904 -1.64351,-0.922007 -0.54689,-0.507104 -1.1498,-0.922007 -1.33979,-0.922007 -0.18999,0 -0.44096,-0.248942 -0.55772,-0.553204 -0.11676,-0.304262 -0.54942,-0.553204 -0.96147,-0.553204 -0.42006,0 -0.74918,-0.24302 -0.74918,-0.553204 0,-0.304262 -0.24894,-0.553204 -0.5532,-0.553204 -0.30426,0 -0.5532,-0.14797 -0.5532,-0.328822 0,-0.180852 -0.41491,-0.432955 -0.92201,-0.56023 -0.50711,-0.127275 -0.92201,-0.394209 -0.92201,-0.593185 0,-0.198977 -0.24894,-0.361777 -0.5532,-0.361777 -0.30426,0 -0.55511,-0.207451 -0.55744,-0.461003 -0.002,-0.253552 -0.66617,-0.778136 -1.47521,-1.165741 -0.80904,-0.387607 -1.47098,-0.844 -1.47098,-1.014208 0,-0.170208 -0.23119,-0.309469 -0.51374,-0.309469 -0.28257,0 -0.60928,-0.248942 -0.72604,-0.553204 -0.11675,-0.304263 -0.47435,-0.553204 -0.79467,-0.553204 -0.32031,0 -0.94787,-0.391838 -1.39458,-0.870751 -0.44671,-0.478913 -1.14412,-0.975705 -1.5498,-1.103983 -0.40569,-0.128277 -1.38729,-0.812676 -2.18134,-1.520886 -0.79405,-0.70821 -1.74833,-1.38433 -2.12062,-1.502489 -0.37228,-0.118159 -0.67688,-0.369612 -0.67688,-0.558785 0,-0.189172 -0.23119,-0.34395 -0.51375,-0.34395 -0.28256,0 -0.60927,-0.248941 -0.72603,-0.553204 -0.11675,-0.304262 -0.52617,-0.553204 -0.9098,-0.553204 -0.38364,0 -1.0016,-0.404915 -1.37325,-0.899812 -0.37166,-0.494897 -1.09049,-1.003909 -1.59742,-1.131139 -0.50692,-0.12723 -1.26335,-0.615073 -1.68094,-1.084094 -0.4176,-0.469022 -1.50609,-1.311849 -2.41888,-1.87295 -0.91279,-0.561101 -1.79233,-1.244975 -1.95454,-1.51972 -0.16221,-0.274745 -0.70158,-0.499536 -1.19861,-0.499536 -0.52438,0 -0.90368,-0.214554 -0.90368,-0.511182 0,-0.28115 -0.62235,-0.804 -1.38301,-1.161889 -0.76065,-0.357888 -1.7485,-1.040643 -2.1952,-1.517232 -0.44671,-0.476589 -0.98609,-0.866526 -1.19861,-0.866526 -0.21253,0 -0.38642,-0.154778 -0.38642,-0.34395 0,-0.189173 -0.37341,-0.4611797 -0.8298,-0.6044603 -0.4564,-0.1432806 -1.1953,-0.6523478 -1.642,-1.131261 -0.44671,-0.4789128 -1.15205,-0.8707505 -1.56742,-0.8707505 -0.42543,0 -0.75521,-0.2415688 -0.75521,-0.5532041 0,-0.3042622 -0.24894,-0.553204 -0.5532,-0.553204 -0.30427,0 -0.55321,-0.1659613 -0.55321,-0.3688027 0,-0.2028415 -0.4149,-0.3688027 -0.92201,-0.3688027 -0.57369,0 -0.922,-0.2089884 -0.922,-0.5532041 0,-0.3042622 -0.24894,-0.553204 -0.55321,-0.553204 -0.30426,0 -0.5532,-0.2295856 -0.5532,-0.5101901 0,-0.2806046 -0.29043,-0.6077087 -0.6454,-0.7268982 -0.69106,-0.2320346 -2.00189,-1.0176357 -2.30502,-1.3814315 -0.10142,-0.1217163 -0.43334,-0.3160656 -0.73761,-0.4318874 -0.30426,-0.1158218 5.8778,-0.2236874 13.7379,-0.2397011 12.47028,-0.025406 14.29111,0.041368 14.29111,0.524088 0,0.3442159 0.34831,0.5532041 0.922,0.5532041 0.5737,0 0.92201,0.2089882 0.92201,0.553204 0,0.3042622 0.24894,0.5532041 0.55321,0.5532041 0.30426,0 0.55449,0.2074515 0.55608,0.4610033 0.003,0.4761368 1.62121,1.3830102 2.46786,1.3830102 0.26383,0 0.47968,0.2489418 0.47968,0.553204 0,0.3042622 0.23119,0.5532041 0.51375,0.5532041 0.28256,0 0.60927,0.2489418 0.72603,0.553204 0.11675,0.3042622 0.47436,0.5532041 0.79467,0.5532041 0.32032,0 0.96691,0.414903 1.43688,0.9220067 0.46997,0.5071037 1.20887,0.9220067 1.642,0.9220067 0.45414,0 0.78751,0.234182 0.78751,0.5532044 0,0.304262 0.15742,0.553204 0.34981,0.553204 0.19239,0 0.79748,0.414903 1.34466,0.922006 0.54717,0.507104 1.30255,0.922007 1.67861,0.922007 0.37607,0 0.68375,0.248942 0.68375,0.553204 0,0.304262 0.23119,0.553204 0.51375,0.553204 0.28256,0 0.60927,0.248942 0.72603,0.553204 0.11676,0.304262 0.47436,0.553204 0.79467,0.553204 0.32032,0 0.94907,0.373413 1.39723,0.829806 0.93774,0.954959 2.00364,1.678834 2.93017,1.989936 0.35497,0.119189 0.6454,0.446293 0.6454,0.726898 0,0.280604 0.24895,0.51019 0.55321,0.51019 0.30426,0 0.5532,0.165961 0.5532,0.368803 0,0.202841 0.41491,0.368802 0.92201,0.368802 0.57369,0 0.92201,0.208989 0.92201,0.553204 0,0.304262 0.24894,0.553204 0.5532,0.553204 0.30426,0 0.5532,0.248942 0.5532,0.553204 0,0.304263 0.29213,0.553204 0.64918,0.553204 0.35704,0 1.09663,0.414903 1.64351,0.922007 0.54689,0.507104 1.1498,0.922007 1.33979,0.922007 0.18999,0 0.44097,0.248942 0.55772,0.553204 0.11676,0.304262 0.54942,0.553204 0.96147,0.553204 0.42007,0 0.74918,0.24302 0.74918,0.553204 0,0.304262 0.24894,0.553204 0.5532,0.553204 0.30426,0 0.55321,0.165961 0.55321,0.368803 0,0.202841 0.4149,0.368802 0.922,0.368802 0.5737,0 0.92201,0.208989 0.92201,0.553205 0,0.304262 0.24894,0.553204 0.5532,0.553204 0.30427,0 0.55321,0.248941 0.55321,0.553204 0,0.304262 0.24894,0.553204 0.5532,0.553204 0.30426,0 0.55321,0.147969 0.55321,0.328821 0,0.180852 0.4149,0.432956 0.922,0.560231 0.50711,0.127275 0.92201,0.394208 0.92201,0.593185 0,0.198977 0.23119,0.361776 0.51374,0.361776 0.28257,0 0.60928,0.248942 0.72604,0.553204 0.116753,0.304262 0.474355,0.553204 0.794668,0.553204 0.320316,0 0.966908,0.414903 1.436877,0.922007 0.469969,0.507104 1.131096,0.922007 1.469178,0.922007 0.338077,0 0.710214,0.248942 0.82697,0.553204 0.116759,0.304262 0.44347,0.553204 0.726032,0.553204 0.282558,0 0.513746,0.209791 0.513746,0.466203 0,0.256412 0.663845,0.753803 1.475211,1.105312 0.811365,0.35151 1.47521,0.805563 1.47521,1.009008 0,0.203444 0.231188,0.369898 0.513746,0.369898 0.282562,0 0.609273,0.248942 0.726033,0.553204 0.116755,0.304263 0.474357,0.553205 0.79467,0.553205 0.320316,0 0.966908,0.414903 1.436877,0.922006 0.469969,0.507104 1.135245,0.922007 1.47839,0.922007 0.343149,0 1.07094,0.474004 1.617322,1.053345 0.546381,0.579341 1.532792,1.283699 2.192026,1.565239 0.659235,0.281544 1.198609,0.720323 1.198609,0.97507 0,0.254747 0.231188,0.463176 0.513746,0.463176 0.282562,0 0.609273,0.248942 0.726032,0.553204 0.116756,0.304262 0.474358,0.553204 0.794671,0.553204 0.320316,0 0.966908,0.414903 1.436877,0.922007 0.494959,0.53407 1.263426,0.922006 1.826403,0.922006 0.534554,0 0.971917,0.164066 0.971917,0.364588 0,0.778926 1.31889,1.848228 2.279621,1.848228 1.260571,0 3.600001,-1.134573 3.612151,-1.751812 0.005,-0.253552 0.31676,-0.461004 0.69282,-0.461004 0.37606,0 1.11754,-0.40202 1.64773,-0.89338 0.53019,-0.49136 1.30125,-1.000429 1.71346,-1.131262 0.41223,-0.130832 0.7495,-0.392657 0.7495,-0.58183 0,-0.18917 0.24894,-0.343949 0.5532,-0.343949 0.30426,0 0.5545,-0.207452 0.55608,-0.461004 0.003,-0.476135 1.62121,-1.38301 2.46787,-1.38301 0.26382,0 0.47968,-0.248942 0.47968,-0.553204 0,-0.304262 0.24894,-0.553204 0.5532,-0.553204 0.30426,0 0.5532,-0.248942 0.5532,-0.553204 0,-0.344215 0.34832,-0.553204 0.92201,-0.553204 0.5071,0 0.92201,-0.165961 0.92201,-0.368803 0,-0.202841 0.24894,-0.368802 0.5532,-0.368802 0.30426,0 0.55321,-0.248942 0.55321,-0.553204 0,-0.344215 0.34831,-0.553204 0.922,-0.553204 0.5737,0 0.92201,-0.20899 0.92201,-0.553205 0,-0.304262 0.24894,-0.553204 0.5532,-0.553204 0.30427,0 0.55321,-0.162799 0.55321,-0.361776 0,-0.198977 0.4149,-0.46591 0.922,-0.593185 0.50711,-0.127275 0.92201,-0.379379 0.92201,-0.560231 0,-0.180852 0.24894,-0.328821 0.5532,-0.328821 0.30427,0 0.55321,-0.248942 0.55321,-0.553204 0,-0.310185 0.32911,-0.553204 0.74918,-0.553204 0.41205,0 0.84471,-0.248942 0.96146,-0.553204 0.11676,-0.304262 0.44347,-0.553204 0.72603,-0.553204 0.28256,0 0.51375,-0.126607 0.51375,-0.281349 0,-0.281687 1.09278,-0.947877 2.30502,-1.405207 0.35497,-0.133917 0.6454,-0.473071 0.6454,-0.753676 0,-0.280604 0.23511,-0.51019 0.52247,-0.51019 0.28736,0 0.57779,-0.124471 0.64541,-0.276602 0.0676,-0.152131 0.74529,-0.593168 1.50594,-0.980082 0.76066,-0.386914 1.38301,-0.926288 1.38301,-1.198609 0,-0.274432 0.38795,-0.495128 0.87035,-0.495128 0.49214,0 1.16399,-0.391014 1.54608,-0.899813 0.37165,-0.494896 1.03018,-0.988775 1.46341,-1.097507 0.43322,-0.108733 1.2268,-0.604658 1.7635,-1.102056 0.5367,-0.497398 1.5165,-1.206738 2.17732,-1.576312 1.4844,-0.830168 2.13701,-1.421522 2.13701,-1.936418 0,-0.21733 0.42012,-0.395146 0.93358,-0.395146 0.51348,0 1.02912,-0.248942 1.14587,-0.553204 0.11676,-0.304262 0.44347,-0.553204 0.72603,-0.553204 0.28256,0 0.51375,-0.147969 0.51375,-0.328821 0,-0.180852 0.4149,-0.432956 0.92201,-0.560231 0.5071,-0.127275 0.922,-0.394208 0.922,-0.593185 0,-0.198977 0.24894,-0.361776 0.55321,-0.361776 0.30426,0 0.5532,-0.248942 0.5532,-0.553204 0,-0.304263 0.30769,-0.553204 0.68375,-0.553204 0.37606,0 1.10478,-0.3902 1.61938,-0.86711 0.5146,-0.476911 1.20268,-0.969586 1.52907,-1.094834 0.32639,-0.125248 0.59343,-0.398893 0.59343,-0.6081 0,-0.209208 0.33193,-0.380378 0.73761,-0.380378 0.40978,0 0.7376,-0.245869 0.7376,-0.553204 0,-0.304262 0.24895,-0.553204 0.55321,-0.553204 0.30426,0 0.5532,-0.165961 0.5532,-0.368803 0,-0.202841 0.33713,-0.368802 0.74918,-0.368802 0.41205,0 0.84471,-0.248942 0.96147,-0.553205 0.11675,-0.304261 0.44347,-0.553203 0.72603,-0.553203 0.28256,0 0.51374,-0.248942 0.51374,-0.553204 0,-0.3190224 0.33338,-0.5532044 0.78752,-0.5532044 0.43313,0 1.15405,-0.3954955 1.60203,-0.8788789 0.44798,-0.4833834 1.17235,-0.992451 1.6097,-1.131261 0.4373499,-0.1388099 0.7951899,-0.4071593 0.7951899,-0.5963318 0,-0.1891722 0.24894,-0.3439498 0.5532,-0.3439498 0.30426,0 0.5545,-0.2074516 0.55608,-0.4610034 0.003,-0.4761368 1.62122,-1.3830101 2.46787,-1.3830101 0.26382,0 0.47968,-0.2489419 0.47968,-0.5532041 0,-0.3042622 0.24894,-0.553204 0.5532,-0.553204 0.30426,0 0.55321,-0.2489419 0.55321,-0.5532041 0,-0.4820316 1.80303,-0.553204 14.0145,-0.553204 12.2114701,0 14.0145001,0.071172 14.0145001,0.553204 0,0.3442159 -0.34831,0.5532041 -0.92201,0.5532041 -0.57369,0 -0.922,0.2089882 -0.922,0.553204 0,0.3042622 -0.24894,0.5532041 -0.55321,0.5532041 -0.30426,0 -0.5532,0.2489418 -0.5532,0.553204 0,0.3442157 -0.34831,0.5532041 -0.92201,0.5532041 -0.5071,0 -0.922,0.1659612 -0.922,0.3688027 0,0.2028414 -0.24895,0.3688027 -0.55321,0.3688027 -0.30426,0 -0.5532,0.2489418 -0.5532,0.553204 0,0.3442157 -0.34831,0.5532041 -0.92201,0.5532041 -0.57369,0 -0.92201,0.2089883 -0.92201,0.553204 0,0.3042622 -0.24894,0.553204 -0.5532,0.553204 -0.30426,0 -0.5532,0.1479696 -0.5532,0.3288216 0,0.180852 -0.41491,0.4329555 -0.92201,0.5602305 -0.5071,0.1272749 -0.92201,0.3942087 -0.92201,0.5931847 0,0.198977 -0.17388,0.361777 -0.38641,0.361777 -0.21253,0 -0.7519,0.389937 -1.19861,0.866526 -0.44671,0.476589 -1.4345501,1.159344 -2.1952001,1.517232 -0.76066,0.357889 -1.38301,0.880739 -1.38301,1.161889 0,0.301083 -0.38371,0.511182 -0.93358,0.511182 -0.51348,0 -1.0211,0.228053 -1.12806,0.506785 -0.10696,0.278732 -0.80709,0.818106 -1.55584,1.198609 -0.74875,0.380503 -1.72685,1.065236 -2.17356,1.52163 -0.44671,0.456393 -1.05130004,0.829806 -1.34355004,0.829806 -0.29225,0 -0.62688,0.248942 -0.74364,0.553204 -0.11676,0.304262 -0.3907,0.553204 -0.60876,0.553204 -0.21806,0 -0.84392996,0.414903 -1.39081996,0.922007 -0.54688,0.507103 -1.28646,0.922006 -1.64351,0.922006 -0.35705,0 -0.64917,0.248942 -0.64917,0.553204 0,0.304263 -0.24895,0.553204 -0.55321,0.553204 -0.30426,0 -0.5532,0.14797 -0.5532,0.328822 0,0.180852 -0.4149,0.432956 -0.92201,0.560231 -0.5071,0.127274 -0.92201,0.394208 -0.92201,0.593185 0,0.198977 -0.24894,0.361776 -0.5532,0.361776 -0.30426,0 -0.5532,0.248942 -0.5532,0.553204 0,0.311635 -0.32978,0.553204 -0.75522,0.553204 -0.41537,0 -1.1206999,0.391838 -1.5674099,0.870751 -0.44671,0.478913 -1.18561,0.98798 -1.642,1.131261 -0.4564,0.14328 -0.82981,0.415287 -0.82981,0.60446 0,0.189172 -0.24894,0.34395 -0.5532,0.34395 -0.30426,0 -0.55321,0.209791 -0.55321,0.466203 0,0.256412 -0.66384,0.753803 -1.47521,1.105312 -0.81136,0.35151 -1.47521,0.805563 -1.47521,1.009007 0,0.203445 -0.24894,0.369899 -0.5532,0.369899 -0.30426,0 -0.55321,0.248942 -0.55321,0.553204 0,0.319022 -0.33337,0.553204 -0.78751,0.553204 -0.43313,0 -1.17203,0.414903 -1.642,0.922007 -0.46997,0.507104 -1.11656,0.922007 -1.43688,0.922007 -0.32031,0 -0.67792,0.248942 -0.79467,0.553204 -0.11676,0.304262 -0.44347,0.553204 -0.72603,0.553204 -0.28256,0 -0.51375,0.248942 -0.51375,0.553204 0,0.304262 -0.21586,0.553204 -0.47968,0.553204 -0.84665,0 -2.46489,0.906873 -2.46786,1.38301 -10e-4,0.253552 -0.23407,0.461004 -0.51663,0.461004 -0.28256,0 -0.60927,0.248941 -0.72603,0.553204 -0.11675,0.304262 -0.48889,0.553204 -0.82697,0.553204 -0.33808,0 -0.99921,0.414903 -1.46918,0.922006 -0.46997,0.507104 -1.19433,0.922007 -1.6097,0.922007 -0.42543,0 -0.75521,0.24157 -0.75521,0.553204 0,0.304262 -0.24895,0.553204 -0.55321,0.553204 -0.30426,0 -0.5532,0.248942 -0.5532,0.553204 0,0.344215 -0.34831,0.553204 -0.92201,0.553204 -0.5071,0 -0.92201,0.165962 -0.92201,0.368803 0,0.202841 -0.24894,0.368803 -0.5532,0.368803 -0.30426,0 -0.5532,0.230951 -0.5532,0.513222 0,0.282274 -0.41491,0.617357 -0.92201,0.744631 -0.5071,0.127277 -0.92201,0.394209 -0.92201,0.593186 0,0.198976 -0.24894,0.361777 -0.5532,0.361777 -0.30426,0 -0.55321,0.165961 -0.55321,0.368803 0,0.202841 -0.24894,0.368802 -0.5532,0.368802 -0.30426,0 -0.5532,0.248942 -0.5532,0.553204 0,0.329824 -0.33921,0.553204 -0.84005,0.553204 -0.82311,0 -2.11038,1.12736 -2.11038,1.848229 0,0.200522 -0.39066,0.364588 -0.86815,0.364588 -0.47748,0 -1.31584,0.414903 -1.86301,0.922006 -0.54718,0.507104 -1.2175,0.922007 -1.48961,0.922007 -0.27211,0 -0.59027,0.248942 -0.70703,0.553204 -0.11676,0.304262 -0.39531,0.553204 -0.619,0.553204 -0.2237,0 -0.63805,0.207452 -0.92078,0.461004 -1.18136,1.059418 -1.63162,1.38301 -1.92441,1.38301 -0.17021,0 -0.71659,0.490854 -1.21418,1.090789 -0.49758,0.599935 -1.21759,1.097819 -1.60002,1.106408 -0.38242,0.0086 -1.07983,0.430522 -1.5498,0.937626 -0.46997,0.507103 -1.19433,0.922006 -1.6097,0.922006 -0.42544,0 -0.75522,0.24157 -0.75522,0.553204 0,0.304263 -0.24894,0.553204 -0.5532,0.553204 -0.30426,0 -0.5532,0.147971 -0.5532,0.328821 0,0.180854 -0.41491,0.432956 -0.92201,0.56023 -0.5071,0.127277 -0.92201,0.39421 -0.92201,0.593186 0,0.198976 -0.24894,0.361777 -0.5532,0.361777 -0.30426,0 -0.55321,0.248942 -0.55321,0.553204 0,0.310185 -0.32911,0.553204 -0.74917,0.553204 -0.41206,0 -0.84471,0.248942 -0.96147,0.553204 -0.11676,0.304262 -0.44347,0.553204 -0.72603,0.553204 -0.28256,0 -0.51375,0.126606 -0.51375,0.281349 0,0.281687 -1.09277,0.947878 -2.30501,1.405208 -0.35498,0.133916 -0.64541,0.473071 -0.64541,0.753674 0,0.280604 -0.24894,0.510191 -0.5532,0.510191 -0.30427,0 -0.55321,0.165961 -0.55321,0.368802 0,0.202842 -0.32367,0.368803 -0.71928,0.368803 -0.3956,0 -0.888438,0.290432 -1.095189,0.645405 -0.206755,0.354972 -0.380962,0.441114 -0.387129,0.191427 z"
         id="path875" />
      <path
         style="fill:#3367d5;fill-opacity:1;fill-rule:evenodd;stroke-width:1.3701"
         d="m -71.472197,177.31334 c 0,-0.30426 -0.24895,-0.55321 -0.553209,-0.55321 -0.304262,0 -0.553204,-0.14797 -0.553204,-0.32882 0,-0.18085 -0.414903,-0.43295 -0.922007,-0.56023 -0.507103,-0.12727 -0.922007,-0.39421 -0.922007,-0.59318 0,-0.19898 -0.248941,-0.36178 -0.553204,-0.36178 -0.304262,0 -0.553204,-0.20959 -0.553204,-0.46575 0,-0.44247 -0.888534,-1.05522 -2.305016,-1.58961 -0.354973,-0.13391 -0.645405,-0.39009 -0.645405,-0.56927 0,-0.17918 -0.248942,-0.32579 -0.553204,-0.32579 -0.304262,0 -0.553204,-0.24894 -0.553204,-0.5532 0,-0.34422 -0.348312,-0.55321 -0.922007,-0.55321 -0.573695,0 -0.922007,-0.20899 -0.922007,-0.5532 0,-0.30426 -0.172902,-0.55321 -0.384222,-0.55321 -0.211324,0 -0.747397,-0.33834 -1.19127,-0.75187 -0.443876,-0.41354 -1.183764,-0.84643 -1.644192,-0.96199 -0.460432,-0.11556 -0.837145,-0.44106 -0.837145,-0.72334 0,-0.28227 -0.248942,-0.51322 -0.553205,-0.51322 -0.304262,0 -0.553204,-0.1628 -0.553204,-0.36178 0,-0.19897 -0.414903,-0.4659 -0.922006,-0.59318 -0.507104,-0.12727 -0.922007,-0.37938 -0.922007,-0.56023 0,-0.18085 -0.248942,-0.32882 -0.553204,-0.32882 -0.304262,0 -0.553204,-0.24894 -0.553204,-0.55321 0,-0.30426 -0.248942,-0.5532 -0.553204,-0.5532 -0.304262,0 -0.553204,-0.15478 -0.553204,-0.34395 0,-0.18917 -0.373413,-0.46118 -0.829806,-0.60446 -0.456394,-0.14328 -1.195294,-0.65235 -1.642002,-1.13126 -0.446709,-0.47891 -1.152044,-0.87075 -1.567412,-0.87075 -0.425436,0 -0.755215,-0.24157 -0.755215,-0.55321 0,-0.30426 -0.157413,-0.5532 -0.349802,-0.5532 -0.19239,0 -0.797488,-0.4149 -1.344662,-0.92201 -0.547174,-0.5071 -1.302552,-0.922 -1.678613,-0.922 -0.376065,0 -0.683753,-0.18085 -0.683753,-0.40189 0,-0.52637 -1.516373,-1.78295 -2.170523,-1.79866 -0.281,-0.007 -0.89543,-0.42717 -1.3654,-0.93428 -0.46997,-0.5071 -1.02838,-0.922 -1.2409,-0.922 -0.21253,0 -0.38642,-0.1628 -0.38642,-0.36178 0,-0.19898 -0.4149,-0.46591 -0.922,-0.59319 -0.50711,-0.12727 -0.92201,-0.40257 -0.92201,-0.61177 0,-0.58526 -1.19578,-1.35888 -2.12061,-1.37196 -0.4564,-0.006 -0.82981,-0.17769 -0.82981,-0.38053 0,-0.77857 -2.44349,-2.58162 -3.49862,-2.58162 -0.30702,0 -0.55821,-0.16596 -0.55821,-0.3688 0,-0.64032 -1.44444,-1.84401 -2.21282,-1.84401 -0.40568,0 -0.7376,-0.2209 -0.7376,-0.49089 0,-0.26998 -0.4564,-0.72611 -1.01421,-1.0136 -0.55781,-0.2875 -1.14692,-0.73045 -1.30913,-0.98433 -0.16221,-0.25388 -0.61861,-0.4616 -1.01421,-0.4616 -0.39561,0 -0.71928,-0.18916 -0.71928,-0.42035 0,-0.61992 -1.16935,-1.39849 -2.12062,-1.41194 -0.45639,-0.006 -0.8298,-0.17579 -0.8298,-0.37631 0,-0.56118 -1.21278,-1.84823 -1.74158,-1.84823 -0.25918,0 -0.47124,-0.1628 -0.47124,-0.36178 0,-0.19898 -0.38301,-0.45791 -0.85114,-0.5754 -0.46813,-0.11749 -1.15522,-0.61854 -1.52687,-1.11343 -0.38209,-0.5088 -1.05394,-0.89981 -1.54608,-0.89981 -0.47869,0 -0.87664,-0.20746 -0.88434,-0.46101 -0.017,-0.55874 -2.72718,-2.48942 -3.49455,-2.48942 -0.30156,0 -0.54828,-0.2228 -0.54828,-0.49512 0,-0.27233 -0.62236,-0.8117 -1.38301,-1.19861 -0.76066,-0.38692 -1.72022,-1.0769 -2.13236,-1.53329 -0.41214,-0.45639 -0.95152,-0.82981 -1.19861,-0.82981 -0.24709,0 -0.44926,-0.1628 -0.44926,-0.36177 0,-0.19898 -0.38301,-0.45791 -0.85114,-0.5754 -0.46813,-0.11749 -1.15522,-0.61854 -1.52687,-1.11344 -0.38209,-0.50879 -1.05394,-0.89981 -1.54608,-0.89981 -0.47869,0 -0.87035,-0.17781 -0.87035,-0.39514 0,-0.51592 -0.9404,-1.44887 -1.46044,-1.44887 -0.2237,0 -0.50225,-0.24894 -0.619,-0.55321 -0.11676,-0.30426 -0.52645,-0.5532 -0.91044,-0.5532 -0.66807,0 -0.69814,-0.43694 -0.69814,-10.14207 v -10.14208 h 0.922 c 0.5737,0 0.92201,0.20899 0.92201,0.55321 0,0.30426 0.24894,0.5532 0.5532,0.5532 0.30427,0 0.55321,0.24894 0.55321,0.5532 0,0.30427 0.24894,0.55321 0.5532,0.55321 0.30426,0 0.55321,0.1628 0.55321,0.36177 0,0.19898 0.4149,0.46592 0.922,0.59319 0.50711,0.12727 0.92201,0.37938 0.92201,0.56023 0,0.18085 0.24894,0.32882 0.5532,0.32882 0.30427,0 0.55321,0.24894 0.55321,0.55321 0,0.34421 0.34831,0.5532 0.922,0.5532 0.5737,0 0.92201,0.20899 0.92201,0.5532 0,0.30427 0.24894,0.55321 0.55321,0.55321 0.30426,0 0.5532,0.16596 0.5532,0.3688 0,0.20284 0.23118,0.3688 0.51375,0.3688 0.28256,0 0.60927,0.24895 0.72603,0.55321 0.11675,0.30426 0.54941,0.5532 0.96146,0.5532 0.42007,0 0.74918,0.24302 0.74918,0.55321 0,0.30426 0.24894,0.5532 0.5532,0.5532 0.30427,0 0.55321,0.1628 0.55321,0.36178 0,0.19897 0.4149,0.46591 0.92201,0.59318 0.5071,0.12728 0.922,0.37938 0.922,0.56023 0,0.18085 0.24894,0.32882 0.55321,0.32882 0.30426,0 0.5532,0.24895 0.5532,0.55321 0,0.30426 0.24894,0.5532 0.5532,0.5532 0.30427,0 0.55321,0.1628 0.55321,0.36178 0,0.19897 0.4149,0.46591 0.92201,0.59318 0.5071,0.12728 0.922,0.37938 0.922,0.56023 0,0.18086 0.24894,0.32882 0.55321,0.32882 0.30426,0 0.5532,0.24895 0.5532,0.55321 0,0.34421 0.34831,0.5532 0.92201,0.5532 0.57369,0 0.922,0.20899 0.922,0.55321 0,0.30426 0.15741,0.5532 0.3498,0.5532 0.1924,0 0.79749,0.4149 1.34467,0.92201 0.54717,0.5071 1.30255,0.922 1.67861,0.922 0.37606,0 0.68375,0.24895 0.68375,0.55321 0,0.30426 0.23119,0.5532 0.51375,0.5532 0.28256,0 0.60927,0.24894 0.72603,0.55321 0.11676,0.30426 0.54942,0.5532 0.96146,0.5532 0.41205,0 0.74918,0.16596 0.74918,0.3688 0,0.20284 0.24895,0.36881 0.55321,0.36881 0.30426,0 0.5532,0.24894 0.5532,0.5532 0,0.30426 0.24894,0.5532 0.55321,0.5532 0.30426,0 0.5532,0.15478 0.5532,0.34395 0,0.18918 0.35783,0.45753 0.79519,0.59634 0.43735,0.13881 1.16171,0.64787 1.6097,1.13126 0.44798,0.48338 1.1689,0.87888 1.60203,0.87888 0.45414,0 0.78752,0.23418 0.78752,0.5532 0,0.30426 0.24894,0.5532 0.5532,0.5532 0.30426,0 0.5532,0.24895 0.5532,0.55321 0,0.30426 0.24895,0.5532 0.55321,0.5532 0.30426,0 0.5532,0.16596 0.5532,0.3688 0,0.20285 0.41491,0.36881 0.92201,0.36881 0.57369,0 0.92201,0.20899 0.92201,0.5532 0,0.30426 0.24894,0.55321 0.5532,0.55321 0.30426,0 0.5532,0.24894 0.5532,0.5532 0,0.31163 0.32978,0.5532 0.75522,0.5532 0.41537,0 1.13973,0.41491 1.6097,0.92201 0.46997,0.5071 1.02515,0.92201 1.23374,0.92201 0.20859,0 0.47478,0.24894 0.59154,0.5532 0.11676,0.30426 0.54942,0.55321 0.96147,0.55321 0.42006,0 0.74918,0.24301 0.74918,0.5532 0,0.30426 0.248939,0.5532 0.553202,0.5532 0.304262,0 0.553204,0.16596 0.553204,0.36881 0,0.20284 0.414903,0.3688 0.922006,0.3688 0.573695,0 0.922007,0.20899 0.922007,0.5532 0,0.30427 0.248942,0.55321 0.553204,0.55321 0.304262,0 0.553204,0.24894 0.553204,0.5532 0,0.30426 0.248942,0.5532 0.553204,0.5532 0.304263,0 0.553204,0.14798 0.553204,0.32883 0,0.18085 0.414903,0.43295 0.922007,0.56023 0.507104,0.12727 0.922007,0.39421 0.922007,0.59318 0,0.19898 0.248942,0.36178 0.553204,0.36178 0.304262,0 0.553204,0.24894 0.553204,0.5532 0,0.34422 0.348312,0.55321 0.922007,0.55321 0.573694,0 0.922006,0.20899 0.922006,0.5532 0,0.30426 0.248942,0.5532 0.553204,0.5532 0.304263,0 0.553205,0.16597 0.553205,0.36881 0,0.20284 0.231187,0.3688 0.513745,0.3688 0.282562,0 0.609273,0.24894 0.726033,0.5532 0.116755,0.30427 0.549412,0.55321 0.961465,0.55321 0.420066,0 0.749178,0.24302 0.749178,0.5532 0,0.30426 0.248942,0.55321 0.553204,0.55321 0.304262,0 0.553204,0.16596 0.553204,0.3688 0,0.20284 0.33713,0.3688 0.749179,0.3688 0.412052,0 0.844709,0.24894 0.961465,0.55321 0.116759,0.30426 0.44347,0.5532 0.726032,0.5532 0.282558,0 0.513746,0.24894 0.513746,0.5532 0,0.30427 0.248942,0.55321 0.553204,0.55321 0.304262,0 0.553204,0.1628 0.553204,0.36177 0,0.19898 0.414903,0.46591 0.922007,0.59319 0.507103,0.12727 0.922006,0.37938 0.922006,0.56023 0,0.18085 0.248942,0.32882 0.553204,0.32882 0.304263,0 0.553204,0.24894 0.553204,0.55321 0,0.34421 0.348313,0.5532 0.922007,0.5532 0.573695,0 0.922007,0.20899 0.922007,0.5532 0,0.30427 0.248942,0.55321 0.553204,0.55321 0.304262,0 0.553204,0.16596 0.553204,0.3688 0,0.20284 0.231188,0.3688 0.513746,0.3688 0.282562,0 0.609273,0.24894 0.726032,0.55321 0.116756,0.30426 0.549413,0.5532 0.961465,0.5532 0.420067,0 0.749179,0.24302 0.749179,0.55321 0,0.30426 0.248941,0.5532 0.5532,0.5532 0.30427,0 0.55321,0.1628 0.55321,0.36178 0,0.19897 0.4149,0.4659 0.922,0.59318 0.50711,0.12728 0.92201,0.37938 0.92201,0.56023 0,0.18085 0.24894,0.32882 0.55321,0.32882 0.30426,0 0.5532,0.24894 0.5532,0.55321 0,0.30426 0.24894,0.5532 0.5532,0.5532 0.30427,0 0.55321,0.15478 0.55321,0.34395 0,0.18917 0.37341,0.46118 0.8298,0.60446 0.4564,0.14328 1.1953,0.65235 1.64201,1.13126 0.4467,0.47891 1.15204,0.87075 1.56741,0.87075 0.42543,0 0.75521,0.24157 0.75521,0.55321 0,0.30426 0.15741,0.5532 0.3498,0.5532 0.19239,0 0.79749,0.4149 1.34467,0.92201 0.54717,0.5071 1.30255,0.922 1.67861,0.922 0.37606,0 0.68375,0.18085 0.68375,0.40189 0,0.22104 0.35295,0.68769 0.78433,1.037 l 0.78432,0.63511 -0.91881,0.99141 c -0.50535,0.54528 -1.10724,0.99142 -1.33753,0.99142 -0.23029,0 -0.41872,0.24895 -0.41872,0.55321 0,0.34421 -0.34831,0.5532 -0.922,0.5532 -0.5737,0 -0.92201,0.20899 -0.92201,0.55321 0,0.30426 -0.24894,0.5532 -0.5532,0.5532 -0.30427,0 -0.55321,0.14661 -0.55321,0.32579 0,0.17918 -0.29043,0.43536 -0.6454,0.56927 -1.41648,0.53439 -2.30502,1.14714 -2.30502,1.58961 0,0.25616 -0.24894,0.46575 -0.5532,0.46575 -0.30427,0 -0.55321,0.1628 -0.55321,0.36178 0,0.19897 -0.4149,0.46591 -0.922,0.59318 -0.50711,0.12728 -0.92201,0.37938 -0.92201,0.56023 0,0.18085 -0.24894,0.32882 -0.5532,0.32882 -0.30427,0 -0.55321,0.24895 -0.55321,0.55321 0,0.3688 -0.3688,0.5532 -1.10641,0.5532 -0.7376,0 -1.1064,-0.1844 -1.1064,-0.5532 z"
         id="path877" />
      <path
         style="fill:#3367d5;fill-opacity:1;fill-rule:evenodd;stroke-width:1.3701"
         d="m -4.1657071,123.84838 c -0.60853,-0.4988 -1.23107,-0.91288 -1.38342,-0.92018 -0.15236,-0.007 -0.92125,-0.6771 -1.70866,-1.48847 -0.7874,-0.81137 -1.78298,-1.47521 -2.2124,-1.47521 -0.44815,0 -0.7807699,-0.23568 -0.7807699,-0.5532 0,-0.30427 -0.24894,-0.55321 -0.5532,-0.55321 -0.30426,0 -0.55321,-0.24894 -0.55321,-0.5532 0,-0.30427 -0.24894,-0.55321 -0.5532,-0.55321 -0.30426,0 -0.5532,-0.1466 -0.5532,-0.32579 0,-0.17918 -0.29044,-0.43535 -0.64541,-0.56927 -1.78191,-0.67224 -2.30501,-1.15854 -2.30501,-2.14281 0,-0.63323 0.19778,-1.01896 0.52247,-1.01896 0.28735,0 0.57779,-0.13154 0.6454,-0.29231 0.0676,-0.16077 0.74529,-0.67219 1.50594,-1.13649 0.76066,-0.46429 1.38301,-0.9966 1.38301,-1.18289 0,-0.1863 0.24895,-0.33873 0.55321,-0.33873 0.30426,0 0.5532,-0.24894 0.5532,-0.5532 0,-0.30426 0.3183799,-0.55321 0.7075099,-0.55321 0.38914,0 1.39845,-0.66384 2.24291,-1.47521 0.84447,-0.81136 1.72931,-1.47786 1.96631,-1.4811 0.58396,-0.008 2.82813,-2.01725 2.82813,-2.53209 0,-0.22684 0.33985,-0.41244 0.75522,-0.41244 0.41536,0 1.16218996,-0.43914 1.65960996,-0.97586 l 0.90439,-0.97586 v 10.56473 c 0,9.145 -0.0743,10.56473 -0.5532,10.56473 -0.30426,0 -0.5532,0.1628 -0.5532,0.36178 0,0.19897 -0.41491,0.46591 -0.92200996,0.59318 -0.5071,0.12728 -0.92201,0.37938 -0.92201,0.56023 0,0.59819 -0.90588,0.33838 -2.02841,-0.58175 z"
         id="path879" />
    </g>
  </g>
</svg>
